<?xml version="1.0" encoding="UTF-8" standalone="no"?>
<svg
   xmlns:dc="http://purl.org/dc/elements/1.1/"
   xmlns:cc="http://creativecommons.org/ns#"
   xmlns:rdf="http://www.w3.org/1999/02/22-rdf-syntax-ns#"
   xmlns:svg="http://www.w3.org/2000/svg"
   xmlns="http://www.w3.org/2000/svg"
   xmlns:sodipodi="http://sodipodi.sourceforge.net/DTD/sodipodi-0.dtd"
   xmlns:inkscape="http://www.inkscape.org/namespaces/inkscape"
   width="100"
   height="100"
   version="1.1"
   id="svg1267"
   sodipodi:docname="linkedin.svg"
   inkscape:version="0.92.2 (30a58d1, 2017-08-07)">
  <metadata
     id="metadata1273">
    <rdf:RDF>
      <cc:Work
         rdf:about="">
        <dc:format>image/svg+xml</dc:format>
        <dc:type
           rdf:resource="http://purl.org/dc/dcmitype/StillImage" />
        <dc:title></dc:title>
      </cc:Work>
    </rdf:RDF>
  </metadata>
  <defs
     id="defs1271" />
  <sodipodi:namedview
     pagecolor="#ffffff"
     bordercolor="#666666"
     borderopacity="1"
     objecttolerance="10"
     gridtolerance="10"
     guidetolerance="10"
     inkscape:pageopacity="0"
     inkscape:pageshadow="2"
     inkscape:window-width="1405"
     inkscape:window-height="1028"
     id="namedview1269"
     showgrid="false"
     inkscape:zoom="1.7914233"
     inkscape:cx="215.0585"
     inkscape:cy="215.05901"
     inkscape:window-x="339"
     inkscape:window-y="24"
     inkscape:window-maximized="0"
     inkscape:current-layer="svg1267" />
  <g
     id="g1244"
     transform="translate(0,-330.11801)">
    <title
       id="title1241">background</title>
    <rect
       id="canvas_background"
       height="402"
       width="582"
       y="-1"
       x="-1"
       style="fill:none" />
  </g>
  <g
     id="g1265"
     transform="matrix(0.22938917,0,0,0.22938917,0.7338384,0.75432591)">
    <title
       id="title1246">Layer 1</title>
    <g
       id="svg_1">
      <path
         d="M 398.355,0 H 31.782 C 14.229,0 0.002,13.793 0.002,30.817 v 368.471 c 0,17.025 14.232,30.83 31.78,30.83 h 366.573 c 17.549,0 31.76,-13.814 31.76,-30.83 V 30.817 C 430.115,13.798 415.904,0 398.355,0 Z M 130.4,360.038 H 65.413 V 165.845 H 130.4 Z M 97.913,139.315 h -0.437 c -21.793,0 -35.92,-14.904 -35.92,-33.563 0,-19.035 14.542,-33.535 36.767,-33.535 22.227,0 35.899,14.496 36.331,33.535 0,18.663 -14.099,33.563 -36.741,33.563 z m 266.746,220.723 h -64.966 v -103.9 c 0,-26.107 -9.413,-43.921 -32.907,-43.921 -17.973,0 -28.642,12.018 -33.327,23.621 -1.736,4.144 -2.166,9.94 -2.166,15.728 v 108.468 h -64.954 c 0,0 0.85,-175.979 0,-194.192 h 64.964 v 27.531 c 8.624,-13.229 24.035,-32.1 58.534,-32.1 42.76,0 74.822,27.739 74.822,87.414 z M 230.883,193.99 c 0.111,-0.182 0.266,-0.401 0.42,-0.614 v 0.614 z"
         id="LinkedIn__x28_alt_x29_"
         inkscape:connector-curvature="0"
         style="fill:#c0b283" />
    </g>
    <g
       id="svg_2" />
    <g
       id="svg_3" />
    <g
       id="svg_4" />
    <g
       id="svg_5" />
    <g
       id="svg_6" />
    <g
       id="svg_7" />
    <g
       id="svg_8" />
    <g
       id="svg_9" />
    <g
       id="svg_10" />
    <g
       id="svg_11" />
    <g
       id="svg_12" />
    <g
       id="svg_13" />
    <g
       id="svg_14" />
    <g
       id="svg_15" />
    <g
       id="svg_16" />
  </g>
</svg>
