<svg width="480" height="480" xmlns="http://www.w3.org/2000/svg">

 <g>
  <title>background</title>
  <rect fill="none" id="canvas_background" height="402" width="582" y="-1" x="-1"/>
 </g>
 <g>
  <title>Layer 1</title>
  <g id="svg_1">
   <g id="svg_2">
    <path fill="#c0b283" id="svg_3" d="m421.648,74.336l-71.984,-71.984c-1.448,-1.456 -3.448,-2.352 -5.664,-2.352l-248,0c-22.056,0 -40,17.944 -40,40l0,400c0,22.056 17.944,40 40,40l288,0c22.056,0 40,-17.944 40,-40l0,-360c0,-2.216 -0.896,-4.216 -2.352,-5.664zm-69.648,-47.024l44.688,44.688l-44.688,0l0,-44.688zm56,412.688c0,13.232 -10.768,24 -24,24l-288,0c-13.232,0 -24,-10.768 -24,-24l0,-400c0,-13.232 10.768,-24 24,-24l240,0l0,64c0,4.424 3.584,8 8,8l64,0l0,352z"/>
   </g>
  </g>
  <g id="svg_4">
   <g id="svg_5">
    <path fill="#c0b283" id="svg_6" d="m128,112c-17.648,0 -32,14.352 -32,32s14.352,32 32,32s32,-14.352 32,-32s-14.352,-32 -32,-32zm0,48c-8.824,0 -16,-7.176 -16,-16c0,-8.824 7.176,-16 16,-16c8.824,0 16,7.176 16,16c0,8.824 -7.176,16 -16,16z"/>
   </g>
  </g>
  <g id="svg_7">
   <g id="svg_8">
    <path fill="#c0b283" id="svg_9" d="m128,200c-17.648,0 -32,14.352 -32,32s14.352,32 32,32s32,-14.352 32,-32s-14.352,-32 -32,-32zm0,48c-8.824,0 -16,-7.176 -16,-16c0,-8.824 7.176,-16 16,-16c8.824,0 16,7.176 16,16c0,8.824 -7.176,16 -16,16z"/>
   </g>
  </g>
  <g id="svg_10">
   <g id="svg_11">
    <path fill="#c0b283" id="svg_12" d="m128,288c-17.648,0 -32,14.352 -32,32s14.352,32 32,32s32,-14.352 32,-32s-14.352,-32 -32,-32zm0,48c-8.824,0 -16,-7.176 -16,-16c0,-8.824 7.176,-16 16,-16c8.824,0 16,7.176 16,16c0,8.824 -7.176,16 -16,16z"/>
   </g>
  </g>
  <g id="svg_13">
   <g id="svg_14">
    <path fill="#c0b283" id="svg_15" d="m129,375c-17.648,0 -32,14.352 -32,32s14.352,32 32,32s32,-14.352 32,-32s-14.352,-32 -32,-32zm0,48c-8.824,0 -16,-7.176 -16,-16c0,-8.824 7.176,-16 16,-16c8.824,0 16,7.176 16,16c0,8.824 -7.176,16 -16,16z"/>
   </g>
  </g>
  <g id="svg_16">
   <g id="svg_17">
    <rect fill="#c0b283" id="svg_18" height="16" width="208" y="152" x="175"/>
   </g>
  </g>
  <g id="svg_19">
   <g id="svg_20">
    <rect fill="#c0b283" id="svg_21" height="16" width="112" y="40" x="184"/>
   </g>
  </g>
  <g id="svg_22">
   <g id="svg_23">
    <rect fill="#c0b283" id="svg_24" height="16" width="160" y="72" x="160"/>
   </g>
  </g>
  <g id="svg_25">
   <g id="svg_26">
    <rect fill="#c0b283" id="svg_27" height="16" width="208" y="240" x="176"/>
   </g>
  </g>
  <g id="svg_28">
   <g id="svg_29">
    <rect fill="#c0b283" id="svg_30" height="16" width="208" y="328" x="176"/>
   </g>
  </g>
  <g id="svg_31">
   <g id="svg_32">
    <rect fill="#c0b283" id="svg_33" height="16" width="208" y="416" x="176"/>
   </g>
  </g>
  <g id="svg_34">
   <g id="svg_35">
    <rect fill="#c0b283" id="svg_36" height="16" width="16" y="120" x="241"/>
   </g>
  </g>
  <g id="svg_37">
   <g id="svg_38">
    <rect fill="#c0b283" id="svg_39" height="16" width="16" y="119" x="207"/>
   </g>
  </g>
  <g id="svg_40">
   <g id="svg_41">
    <rect fill="#c0b283" id="svg_42" height="16" width="16" y="120" x="176"/>
   </g>
  </g>
  <g id="svg_43"/>
  <g id="svg_44"/>
  <g id="svg_45"/>
  <g id="svg_46"/>
  <g id="svg_47"/>
  <g id="svg_48"/>
  <g id="svg_49"/>
  <g id="svg_50"/>
  <g id="svg_51"/>
  <g id="svg_52"/>
  <g id="svg_53"/>
  <g id="svg_54"/>
  <g id="svg_55"/>
  <g id="svg_56"/>
  <g id="svg_57"/>
 </g>
</svg>