<?xml version="1.0" encoding="UTF-8" standalone="no"?>
<svg
   xmlns:dc="http://purl.org/dc/elements/1.1/"
   xmlns:cc="http://creativecommons.org/ns#"
   xmlns:rdf="http://www.w3.org/1999/02/22-rdf-syntax-ns#"
   xmlns:svg="http://www.w3.org/2000/svg"
   xmlns="http://www.w3.org/2000/svg"
   xmlns:sodipodi="http://sodipodi.sourceforge.net/DTD/sodipodi-0.dtd"
   xmlns:inkscape="http://www.inkscape.org/namespaces/inkscape"
   viewBox="0 0 100 100"
   version="1.1"
   id="svg213"
   sodipodi:docname="icon-photoshop.svg"
   width="100"
   height="100"
   inkscape:version="0.92.2 (30a58d1, 2017-08-07)">
  <metadata
     id="metadata219">
    <rdf:RDF>
      <cc:Work
         rdf:about="">
        <dc:format>image/svg+xml</dc:format>
        <dc:type
           rdf:resource="http://purl.org/dc/dcmitype/StillImage" />
        <dc:title></dc:title>
      </cc:Work>
    </rdf:RDF>
  </metadata>
  <defs
     id="defs217" />
  <sodipodi:namedview
     pagecolor="#ffffff"
     bordercolor="#666666"
     borderopacity="1"
     objecttolerance="10"
     gridtolerance="10"
     guidetolerance="10"
     inkscape:pageopacity="0"
     inkscape:pageshadow="2"
     inkscape:window-width="829"
     inkscape:window-height="624"
     id="namedview215"
     showgrid="false"
     inkscape:zoom="1.84375"
     inkscape:cx="64"
     inkscape:cy="64"
     inkscape:window-x="75"
     inkscape:window-y="34"
     inkscape:window-maximized="0"
     inkscape:current-layer="svg213" />
  <path
     d="m 39.50852,32.868528 c -2.919737,-0.733503 -5.84344,-0.497989 -8.928909,-0.01745 0,5.396202 -0.0111,10.647288 0.02934,15.899167 0.0016,0.268819 0.40521,0.736676 0.666893,0.772359 3.364597,0.454376 6.710955,0.490852 9.857484,-1.042763 3.255167,-1.585952 4.913278,-4.902177 4.483486,-8.795689 -0.390145,-3.545396 -2.489152,-5.906085 -6.108294,-6.815628 z m 60.86407,17.720633 V 2.4729669 c 0,-1.66207757 0.0182,-1.81194998 -1.595465,-1.81194998 H 2.4234145 c -1.56929941,0 -1.96578738,0.15066544 -1.96578738,1.73344538 V 98.748175 c 0,1.600225 0.19982993,1.602605 1.75168378,1.602605 32.1591391,7.9e-4 64.4142291,-0.007 96.5733641,0.0293 1.247355,0.002 1.581985,-0.33067 1.578815,-1.55344 -0.0428,-16.079173 0.0111,-32.159932 0.0111,-48.237519 z m -56.022159,4.63098 c -4.406567,1.571678 -9.001863,1.659698 -13.759718,1.290964 v 17.896674 h -8.722736 v -1.111752 c 0,-14.983281 -0.06899,-29.964975 -0.111017,-44.947462 -0.0048,-1.24418 0.192694,-1.845255 1.594675,-1.987991 6.607076,-0.675615 13.176882,-1.435286 19.746687,0.105466 7.062244,1.654941 11.134176,6.323983 11.443436,12.774842 0.383007,7.98844 -3.127497,13.459974 -10.191327,15.979259 z m 35.136764,10.113615 c -0.336222,4.576264 -2.916566,7.580849 -7.148678,9.033581 -5.663435,1.944377 -11.295942,1.493174 -16.830915,-0.706541 -0.906371,-0.360804 -1.081619,-0.817558 -0.782667,-1.741375 0.544775,-1.685867 0.943641,-3.419312 1.363919,-4.984647 2.340072,0.686717 4.565162,1.543925 6.870344,1.949135 1.627979,0.286264 3.387593,0.118153 5.042534,-0.14115 1.483658,-0.233135 2.551004,-1.240214 2.794447,-2.83251 0.247408,-1.618464 -0.240272,-3.020445 -1.669215,-3.881617 -1.135541,-0.683545 -2.386857,-1.172811 -3.586629,-1.746133 -1.929312,-0.922231 -3.985498,-1.645426 -5.764936,-2.799206 -7.002771,-4.541373 -4.722965,-12.991324 -0.04995,-16.173536 2.500253,-1.701727 5.266946,-2.45664 8.228711,-2.56052 3.483543,-0.122118 6.837831,0.478957 10.132646,2.079976 l -1.740582,6.17649 c -1.379778,-0.488474 -2.664399,-1.122854 -4.020388,-1.37502 -1.608948,-0.299745 -3.296401,-0.467063 -4.920415,-0.334637 -2.177512,0.17842 -3.452618,1.68111 -3.452618,3.544603 0,1.103822 0.418692,2.037948 1.339337,2.573207 1.321098,0.768394 2.723079,1.401982 4.112373,2.045085 1.503482,0.69544 3.09102,1.229905 4.538202,2.023674 3.861792,2.117246 5.871986,5.392237 5.544487,9.851141 z"
     id="path211"
     inkscape:connector-curvature="0"
     style="clip-rule:evenodd;fill:#80b5e2;fill-rule:evenodd;stroke-width:0.7929759" />
</svg>
