<?xml version="1.0" encoding="UTF-8" standalone="no"?>
<svg
   xmlns:dc="http://purl.org/dc/elements/1.1/"
   xmlns:cc="http://creativecommons.org/ns#"
   xmlns:rdf="http://www.w3.org/1999/02/22-rdf-syntax-ns#"
   xmlns:svg="http://www.w3.org/2000/svg"
   xmlns="http://www.w3.org/2000/svg"
   xmlns:sodipodi="http://sodipodi.sourceforge.net/DTD/sodipodi-0.dtd"
   xmlns:inkscape="http://www.inkscape.org/namespaces/inkscape"
   viewBox="0 0 100 100"
   version="1.1"
   id="svg382"
   sodipodi:docname="icon-nodejs.svg"
   width="100"
   height="100"
   inkscape:version="0.92.2 (30a58d1, 2017-08-07)">
  <metadata
     id="metadata388">
    <rdf:RDF>
      <cc:Work
         rdf:about="">
        <dc:format>image/svg+xml</dc:format>
        <dc:type
           rdf:resource="http://purl.org/dc/dcmitype/StillImage" />
        <dc:title></dc:title>
      </cc:Work>
    </rdf:RDF>
  </metadata>
  <defs
     id="defs386" />
  <sodipodi:namedview
     pagecolor="#ffffff"
     bordercolor="#666666"
     borderopacity="1"
     objecttolerance="10"
     gridtolerance="10"
     guidetolerance="10"
     inkscape:pageopacity="0"
     inkscape:pageshadow="2"
     inkscape:window-width="703"
     inkscape:window-height="532"
     id="namedview384"
     showgrid="false"
     inkscape:zoom="1.84375"
     inkscape:cx="64"
     inkscape:cy="64"
     inkscape:window-x="127"
     inkscape:window-y="107"
     inkscape:window-maximized="0"
     inkscape:current-layer="svg382" />
  <path
     d="M 89.721179,23.207074 54.118071,2.5340677 c -2.245329,-1.2788925 -5.168857,-1.2788925 -7.431947,0 L 10.70274,23.207074 c -2.3171852,1.332987 -3.9569773,3.838292 -3.9569773,6.517992 v 41.291109 c 0,2.679699 1.6825832,5.185812 3.9997683,6.526066 l 9.506918,5.39977 c 4.543944,2.238062 6.149826,2.238062 8.217531,2.238062 6.727911,0 10.571047,-4.068398 10.571047,-11.164475 V 33.250901 c 0,-0.575663 -0.299538,-1.432295 -0.864706,-1.432295 h -4.539907 c -0.574855,0 -1.861821,0.856632 -1.861821,1.431488 V 74.01479 c 0,3.145559 -2.845213,6.275777 -8.162628,3.61707 l -9.823412,-5.662167 c -0.34233,-0.185698 -0.583737,-0.559515 -0.583737,-0.953518 V 29.725066 c 0,-0.389158 0.448097,-0.77993 0.792848,-0.979354 L 49.864784,8.1082302 c 0.335064,-0.1897347 0.827567,-0.1897347 1.161822,0 L 86.456128,28.740868 c 0.3391,0.204268 0.219607,0.582929 0.219607,0.984198 v 41.291109 c 0,0.394003 0.147751,0.777509 -0.187312,0.967243 L 50.894196,92.633013 c -0.30519,0.183275 -0.683852,0.183275 -1.018108,0 l -9.129064,-5.449019 c -0.275317,-0.159861 -0.602306,-0.217186 -0.86632,-0.06943 -2.540022,1.439562 -3.008304,1.630911 -5.390887,2.456863 -0.586159,0.204267 -1.450865,0.558707 0.331027,1.557438 l 11.947632,7.067819 c 1.14406,0.662053 2.443945,1.005994 3.751902,1.005994 1.325721,0 2.623991,-0.343941 3.768051,-1.005994 L 89.720371,77.542241 c 2.317185,-1.349942 3.415225,-3.846367 3.415225,-6.526066 V 29.725066 c 0,-2.6797 -1.09804,-5.178545 -3.414417,-6.517992 z M 61.575047,64.473155 c -9.467356,0 -11.552823,-2.611879 -12.247978,-7.319722 -0.08074,-0.507035 -0.511073,-1.113378 -1.02699,-1.113378 h -4.627104 c -0.572433,0 -1.032641,0.694347 -1.032641,1.264359 0,6.027911 3.277162,13.331484 18.935521,13.331484 11.33483,0 17.833444,-4.404266 17.833444,-12.198728 0,-7.728257 -5.221336,-9.756399 -16.213837,-11.211301 -11.111185,-1.468627 -12.239905,-2.210611 -12.239905,-4.813609 0,-2.14602 0.95594,-5.008188 9.183158,-5.008188 7.35121,0 10.060783,1.577624 11.175776,6.532524 0.09527,0.46586 0.520762,0.800116 1.001154,0.800116 h 4.645674 c 0.285813,0 0.558707,-0.115456 0.758938,-0.319724 0.193772,-0.219607 0.296309,-0.494924 0.270473,-0.790426 -0.719377,-8.532408 -6.388003,-12.508763 -17.852822,-12.508763 -10.198037,0 -16.281657,4.306574 -16.281657,11.525372 0,7.829987 6.052939,9.99377 15.842442,10.961821 11.71107,1.148096 12.621796,2.859744 12.621796,5.163204 0,4.000576 -3.211764,5.704959 -10.745442,5.704959 z"
     id="path380"
     inkscape:connector-curvature="0"
     style="fill:#83cd29;stroke-width:0.80738157" />
</svg>
