<?xml version="1.0" encoding="UTF-8" standalone="no"?>
<svg
   xmlns:dc="http://purl.org/dc/elements/1.1/"
   xmlns:cc="http://creativecommons.org/ns#"
   xmlns:rdf="http://www.w3.org/1999/02/22-rdf-syntax-ns#"
   xmlns:svg="http://www.w3.org/2000/svg"
   xmlns="http://www.w3.org/2000/svg"
   xmlns:sodipodi="http://sodipodi.sourceforge.net/DTD/sodipodi-0.dtd"
   xmlns:inkscape="http://www.inkscape.org/namespaces/inkscape"
   viewBox="0 0 100 100"
   version="1.1"
   id="svg975"
   sodipodi:docname="icon-css3.svg"
   width="100"
   height="100"
   inkscape:version="0.92.2 (30a58d1, 2017-08-07)">
  <metadata
     id="metadata981">
    <rdf:RDF>
      <cc:Work
         rdf:about="">
        <dc:format>image/svg+xml</dc:format>
        <dc:type
           rdf:resource="http://purl.org/dc/dcmitype/StillImage" />
        <dc:title></dc:title>
      </cc:Work>
    </rdf:RDF>
  </metadata>
  <defs
     id="defs979" />
  <sodipodi:namedview
     pagecolor="#ffffff"
     bordercolor="#666666"
     borderopacity="1"
     objecttolerance="10"
     gridtolerance="10"
     guidetolerance="10"
     inkscape:pageopacity="0"
     inkscape:pageshadow="2"
     inkscape:window-width="640"
     inkscape:window-height="480"
     id="namedview977"
     showgrid="false"
     inkscape:zoom="1.84375"
     inkscape:cx="64"
     inkscape:cy="85.188078"
     inkscape:window-x="141"
     inkscape:window-y="90"
     inkscape:window-maximized="0"
     inkscape:current-layer="svg975" />
  <path
     d="M 16.41934,88.008983 8.76,2.0977627 H 92.925884 L 85.258929,87.996028 50.791901,97.551537 Z"
     id="path963"
     inkscape:connector-curvature="0"
     style="fill:#1572b6;stroke-width:0.76182008" />
  <path
     d="M 50.843706,90.24797 78.695088,82.526161 85.247503,9.1217439 H 50.843706 Z"
     id="path965"
     inkscape:connector-curvature="0"
     style="fill:#33a9dc;stroke-width:0.76182008" />
  <path
     d="M 50.843706,40.247429 H 64.786538 L 65.749479,29.457771 H 50.843706 V 18.921037 h 26.421445 l -0.252924,2.827114 -2.590188,29.036013 H 50.843706 Z"
     id="path967"
     inkscape:connector-curvature="0"
     style="fill:#ffffff;stroke-width:0.76182008" />
  <path
     d="m 50.906175,67.612009 -0.04648,0.01371 -11.734315,-3.16841 -0.750393,-8.403638 H 27.799409 l 1.475645,16.544448 21.583126,5.990191 0.04799,-0.01371 z"
     id="path969"
     inkscape:connector-curvature="0"
     style="fill:#ebebeb;stroke-width:0.76182008" />
  <path
     d="M 63.890637,50.338499 62.621445,64.448932 50.869607,67.62115 v 10.962592 l 21.600648,-5.986383 0.158459,-1.780374 1.832939,-20.478486 z"
     id="path971"
     inkscape:connector-curvature="0"
     style="fill:#ffffff;stroke-width:0.76182008" />
  <path
     d="M 50.879511,18.921037 V 29.457771 H 25.428625 L 25.2176,27.090034 24.737653,21.748151 24.485491,18.921037 Z m -0.03581,21.327916 V 50.785687 H 39.257184 L 39.046159,48.41795 38.56545,43.076068 38.31405,40.248953 Z"
     id="path973"
     inkscape:connector-curvature="0"
     style="fill:#ebebeb;stroke-width:0.76182008" />
</svg>
