<?xml version="1.0" encoding="UTF-8" standalone="no"?>
<svg
   xmlns:dc="http://purl.org/dc/elements/1.1/"
   xmlns:cc="http://creativecommons.org/ns#"
   xmlns:rdf="http://www.w3.org/1999/02/22-rdf-syntax-ns#"
   xmlns:svg="http://www.w3.org/2000/svg"
   xmlns="http://www.w3.org/2000/svg"
   xmlns:sodipodi="http://sodipodi.sourceforge.net/DTD/sodipodi-0.dtd"
   xmlns:inkscape="http://www.inkscape.org/namespaces/inkscape"
   viewBox="0 0 100 100"
   version="1.1"
   id="svg1049"
   sodipodi:docname="icon-bootstrap.svg"
   width="100"
   height="100"
   inkscape:version="0.92.2 (30a58d1, 2017-08-07)">
  <metadata
     id="metadata1055">
    <rdf:RDF>
      <cc:Work
         rdf:about="">
        <dc:format>image/svg+xml</dc:format>
        <dc:type
           rdf:resource="http://purl.org/dc/dcmitype/StillImage" />
        <dc:title></dc:title>
      </cc:Work>
    </rdf:RDF>
  </metadata>
  <defs
     id="defs1053" />
  <sodipodi:namedview
     pagecolor="#ffffff"
     bordercolor="#666666"
     borderopacity="1"
     objecttolerance="10"
     gridtolerance="10"
     guidetolerance="10"
     inkscape:pageopacity="0"
     inkscape:pageshadow="2"
     inkscape:window-width="640"
     inkscape:window-height="480"
     id="namedview1051"
     showgrid="false"
     inkscape:zoom="1.84375"
     inkscape:cx="64"
     inkscape:cy="64"
     inkscape:window-x="98"
     inkscape:window-y="51"
     inkscape:window-maximized="0"
     inkscape:current-layer="svg1049" />
  <path
     d="M 59.818808,51.198999 C 57.98104,50.594284 55.33541,50.724203 51.881918,50.724203 H 38.007322 v 18.109966 h 14.837574 c 2.318076,0 3.946398,-0.248027 4.884179,-0.421253 1.652731,-0.296059 3.034601,-0.869279 4.14482,-1.560607 1.109432,-0.689753 2.022017,-1.736194 2.738542,-3.05586 0.71495,-1.319665 1.073212,-2.863737 1.073212,-4.590482 0,-2.022018 -0.518102,-3.57475 -1.555095,-5.067641 -1.036205,-1.492891 -2.473191,-2.334611 -4.311746,-2.939327 z m -1.904696,-8.280191 c 1.824382,-0.541724 3.199952,-1.488167 4.125135,-2.745628 0.92597,-1.258249 1.388168,-2.859013 1.388168,-4.758984 0,-1.799974 -0.432277,-3.3968 -1.296043,-4.766859 -0.863767,-1.370058 -2.096032,-1.899971 -3.699945,-2.406263 -1.603913,-0.504717 -4.354266,-0.351176 -8.251846,-0.351176 H 38.007322 v 15.747797 h 13.060435 c 3.18263,0 5.463698,-0.299208 6.846355,-0.718887 z M 99.423729,14.209 c 0,-7.2298129 -5.860543,-13.0903559 -13.090356,-13.0903559 H 14.090356 C 6.8605425,1.1186441 1,6.9791871 1,14.209 v 72.243017 c 0,7.229813 5.8605425,13.090356 13.090356,13.090356 h 72.243017 c 7.229813,0 13.090356,-5.860543 13.090356,-13.090356 z M 71.513121,66.271216 c -1.072424,2.183432 -2.399176,3.866871 -3.977893,5.051105 -1.579504,1.184235 -3.559789,2.188944 -5.940069,2.793659 -2.379492,0.605503 -5.297559,1.017308 -8.750263,1.017308 H 30.920814 V 20.80339 h 21.590229 c 4.14482,0 7.468392,0.47952 9.972292,1.576354 2.504687,1.098409 4.465288,2.753502 5.884952,5.035358 1.418089,2.281856 2.127527,4.651112 2.127527,7.142413 0,2.318863 -0.629912,4.494421 -1.887374,6.541635 -1.258249,2.048788 -3.15822,3.696008 -5.69834,4.954257 3.280266,0.96219 5.803063,2.601536 7.566816,4.919612 1.763754,2.318863 2.64563,5.056617 2.64563,8.21405 0,2.540907 -0.536212,4.901502 -1.609425,7.084147 z"
     id="path1047"
     inkscape:connector-curvature="0"
     style="fill:#5b4282;stroke-width:0.78738981" />
</svg>
