<?xml version="1.0" encoding="UTF-8" standalone="no"?>
<svg
   xmlns:dc="http://purl.org/dc/elements/1.1/"
   xmlns:cc="http://creativecommons.org/ns#"
   xmlns:rdf="http://www.w3.org/1999/02/22-rdf-syntax-ns#"
   xmlns:svg="http://www.w3.org/2000/svg"
   xmlns="http://www.w3.org/2000/svg"
   xmlns:sodipodi="http://sodipodi.sourceforge.net/DTD/sodipodi-0.dtd"
   xmlns:inkscape="http://www.inkscape.org/namespaces/inkscape"
   viewBox="0 0 100 100"
   version="1.1"
   id="svg590"
   sodipodi:docname="icon-jquery.svg"
   width="100"
   height="100"
   inkscape:version="0.92.2 (30a58d1, 2017-08-07)">
  <metadata
     id="metadata596">
    <rdf:RDF>
      <cc:Work
         rdf:about="">
        <dc:format>image/svg+xml</dc:format>
        <dc:type
           rdf:resource="http://purl.org/dc/dcmitype/StillImage" />
        <dc:title></dc:title>
      </cc:Work>
    </rdf:RDF>
  </metadata>
  <defs
     id="defs594" />
  <sodipodi:namedview
     pagecolor="#ffffff"
     bordercolor="#666666"
     borderopacity="1"
     objecttolerance="10"
     gridtolerance="10"
     guidetolerance="10"
     inkscape:pageopacity="0"
     inkscape:pageshadow="2"
     inkscape:window-width="658"
     inkscape:window-height="647"
     id="namedview592"
     showgrid="false"
     inkscape:zoom="1.84375"
     inkscape:cx="64"
     inkscape:cy="64"
     inkscape:window-x="450"
     inkscape:window-y="111"
     inkscape:window-maximized="0"
     inkscape:current-layer="svg590" />
  <path
     d="m 7.4293628,24.324808 c -8.7240822,12.538347 -7.6380214,28.852989 -0.973737,42.176812 0.1582026,0.31957 0.3243154,0.633602 0.488055,0.947634 l 0.3116591,0.600379 0.1945893,0.345672 0.3472546,0.621737 c 0.2072454,0.364657 0.4192369,0.727732 0.6359745,1.090807 l 0.3630749,0.598006 c 0.2404677,0.388387 0.4864731,0.772028 0.7380147,1.154878 l 0.3148238,0.485682 c 0.3472533,0.518114 0.7024193,1.035436 1.0694493,1.543267 l 0.03085,0.03955 0.180351,0.243632 c 0.317195,0.43743 0.643884,0.869322 0.974528,1.29647 l 0.36703,0.466698 c 0.295047,0.370985 0.594842,0.739596 0.900172,1.106626 l 0.34409,0.411327 c 0.409746,0.482519 0.828191,0.962663 1.254547,1.433315 l 0.02611,0.02611 0.04826,0.05379 c 0.416864,0.454832 0.843221,0.899383 1.275113,1.343931 l 0.408953,0.412118 c 0.334599,0.336972 0.674735,0.668406 1.018035,0.998258 l 0.416864,0.395507 c 0.458787,0.432684 0.922321,0.856667 1.395346,1.271157 l 0.02215,0.01741 0.242841,0.207245 c 0.416864,0.360702 0.840846,0.719031 1.267994,1.070241 l 0.525232,0.418445 c 0.348837,0.28002 0.701628,0.555292 1.056794,0.825818 l 0.564783,0.42952 c 0.392343,0.28872 0.787057,0.572694 1.185728,0.85034 l 0.431894,0.306121 0.118651,0.08465 c 0.378104,0.260244 0.76491,0.510995 1.151716,0.761746 l 0.498338,0.332226 c 0.593259,0.37494 1.194429,0.745925 1.802719,1.104254 l 0.498337,0.280809 c 0.446922,0.257871 0.897009,0.510995 1.352632,0.758582 0.246796,0.13289 0.49992,0.258661 0.748298,0.386015 0.321943,0.168484 0.641512,0.339344 0.968992,0.503083 l 0.223856,0.108369 0.396297,0.191425 c 0.50704,0.242051 1.018035,0.480145 1.534566,0.709539 l 0.324314,0.145547 c 0.591679,0.258661 1.188102,0.507039 1.790063,0.744343 l 0.435849,0.171649 c 0.556872,0.214365 1.121656,0.426356 1.688813,0.625692 l 0.211991,0.07356 c 0.622527,0.217529 1.250592,0.419237 1.883402,0.616199 l 0.454832,0.136055 c 0.643886,0.193798 1.28065,0.425564 1.94431,0.548171 42.191829,7.694185 54.44779,-25.354342 54.44779,-25.354342 C 87.038495,83.850925 68.767677,87.388336 51.456358,83.449882 50.800608,83.301963 50.164633,83.09709 49.524704,82.908038 l -0.481727,-0.146337 c -0.6249,-0.191426 -1.244264,-0.393134 -1.860463,-0.605125 l -0.255497,-0.09254 C 46.374888,81.870215 45.82988,81.665342 45.286453,81.455725 l -0.46037,-0.181146 C 44.231242,81.039648 43.639564,80.794434 43.055005,80.538146 L 42.701423,80.381525 C 42.19913,80.153714 41.702374,79.92432 41.2072,79.686225 L 40.775307,79.478979 C 40.386919,79.289927 40.002486,79.08901 39.619636,78.891257 39.363347,78.755994 39.102314,78.628641 38.848398,78.487841 38.380119,78.23709 37.921331,77.976846 37.463335,77.711066 l -0.46749,-0.261035 C 36.387557,77.092493 35.787178,76.721508 35.192337,76.344986 L 34.705864,76.020671 C 34.274762,75.743025 33.845242,75.459843 33.42205,75.167169 l -0.412909,-0.290303 c -0.408163,-0.28872 -0.81237,-0.580603 -1.213415,-0.877233 l -0.537097,-0.406581 c -0.36782,-0.28081 -0.733268,-0.563992 -1.094762,-0.855876 l -0.488055,-0.391551 c -0.46037,-0.378896 -0.914411,-0.758583 -1.363706,-1.149342 L 28.162604,71.070512 C 27.676922,70.644155 27.200732,70.206725 26.729289,69.767713 L 26.325081,69.379326 C 25.976244,69.0471 25.632945,68.712503 25.295182,68.369202 l -0.403416,-0.402625 c -0.429521,-0.439804 -0.85113,-0.885143 -1.264039,-1.336813 l -0.06249,-0.06644 c -0.436636,-0.477779 -0.863783,-0.965835 -1.282229,-1.458636 l -0.335389,-0.39867 C 21.635956,64.33029 21.32667,63.949812 21.024503,63.56538 L 20.68674,63.144561 C 20.323666,62.673118 19.9685,62.204047 19.621246,61.725484 10.010438,48.615234 6.5568755,30.53426 14.238403,15.685364 m 20.272872,-1.925325 c -6.309911,9.079247 -5.966612,21.233953 -1.044928,30.836059 0.825025,1.609711 1.752885,3.171962 2.790693,4.658275 0.945261,1.355006 1.993353,2.967091 3.247899,4.055524 0.454833,0.500711 0.930231,0.989558 1.415913,1.469703 l 0.373359,0.36782 c 0.471443,0.457205 0.950007,0.906501 1.445971,1.34314 l 0.05854,0.05062 0.01424,0.01424 c 0.548173,0.480935 1.113747,0.942096 1.688814,1.397719 l 0.383641,0.299003 c 0.576648,0.442176 1.16437,0.875652 1.766331,1.290143 l 0.05142,0.03876 c 0.26578,0.183515 0.536307,0.354374 0.806042,0.531561 l 0.38206,0.252333 c 0.430311,0.276064 0.866159,0.545008 1.309126,0.802879 l 0.185888,0.107577 c 0.38206,0.219902 0.768865,0.43664 1.157252,0.647049 l 0.412118,0.214364 c 0.268153,0.14001 0.536306,0.283183 0.809207,0.419237 l 0.122606,0.05537 c 0.556082,0.273691 1.116911,0.53789 1.689604,0.78706 l 0.373358,0.153456 c 0.457996,0.194589 0.920739,0.384432 1.384273,0.561619 l 0.59326,0.217528 c 0.42161,0.156621 0.844802,0.299003 1.271158,0.442176 l 0.575066,0.184307 c 0.606701,0.188266 1.206289,0.42636 1.838309,0.531564 32.576287,5.397081 40.09724,-19.685149 40.09724,-19.685149 -6.778984,9.763473 -19.908217,14.422539 -33.917848,10.785461 -0.622528,-0.163739 -1.235562,-0.340925 -1.845433,-0.533142 l -0.554501,-0.17956 c -0.433479,-0.140011 -0.86379,-0.28872 -1.290145,-0.44455 L 61.519621,55.215448 C 61.051342,55.035097 60.58939,54.85 60.130603,54.65541 l -0.37415,-0.158202 c -0.575066,-0.249961 -1.141431,-0.514159 -1.699095,-0.790223 -0.287138,-0.140009 -0.56953,-0.287928 -0.852712,-0.433474 l -0.492011,-0.253125 c -0.362282,-0.196171 -0.722985,-0.400253 -1.07815,-0.60908 l -0.25787,-0.146337 c -0.441386,-0.257079 -0.875652,-0.52286 -1.305963,-0.797341 l -0.393924,-0.262617 c -0.283973,-0.183515 -0.567157,-0.370984 -0.845592,-0.559246 -0.60038,-0.414491 -1.184939,-0.847966 -1.760796,-1.287769 l -0.396297,-0.31245 C 44.54211,44.204547 39.680545,37.586932 37.369996,30.084173 34.947913,22.30377 35.469982,13.569404 39.666306,6.4803466 M 57.288493,5.8673113 C 53.56915,11.341121 53.203702,18.139087 55.784778,24.184008 c 2.721875,6.417489 8.298517,11.450704 14.807762,13.838772 0.268153,0.09888 0.537098,0.18747 0.808415,0.280019 l 0.356748,0.113114 c 0.383641,0.120234 0.764119,0.260243 1.160416,0.335391 17.987635,3.475711 22.866603,-9.230332 24.164656,-11.101077 -4.273052,6.153289 -11.455451,7.630111 -20.268126,5.491212 -0.696092,-0.168485 -1.461001,-0.420028 -2.131781,-0.658123 -0.860621,-0.306913 -1.708587,-0.65654 -2.532032,-1.051257 -1.564623,-0.752253 -3.056474,-1.66429 -4.439164,-2.708427 C 59.826064,22.739618 54.92732,11.326091 60.072859,2.0308983"
     id="path588"
     inkscape:connector-curvature="0"
     style="fill:#0868ac;stroke-width:0.79101294" />
</svg>
