<?xml version="1.0" encoding="UTF-8" standalone="no"?>
<svg
   xmlns:dc="http://purl.org/dc/elements/1.1/"
   xmlns:cc="http://creativecommons.org/ns#"
   xmlns:rdf="http://www.w3.org/1999/02/22-rdf-syntax-ns#"
   xmlns:svg="http://www.w3.org/2000/svg"
   xmlns="http://www.w3.org/2000/svg"
   xmlns:sodipodi="http://sodipodi.sourceforge.net/DTD/sodipodi-0.dtd"
   xmlns:inkscape="http://www.inkscape.org/namespaces/inkscape"
   viewBox="0 0 100 100"
   version="1.1"
   id="svg516"
   sodipodi:docname="icon-mongodb.svg"
   width="100"
   height="100"
   inkscape:version="0.92.2 (30a58d1, 2017-08-07)">
  <metadata
     id="metadata522">
    <rdf:RDF>
      <cc:Work
         rdf:about="">
        <dc:format>image/svg+xml</dc:format>
        <dc:type
           rdf:resource="http://purl.org/dc/dcmitype/StillImage" />
        <dc:title></dc:title>
      </cc:Work>
    </rdf:RDF>
  </metadata>
  <defs
     id="defs520" />
  <sodipodi:namedview
     pagecolor="#ffffff"
     bordercolor="#666666"
     borderopacity="1"
     objecttolerance="10"
     gridtolerance="10"
     guidetolerance="10"
     inkscape:pageopacity="0"
     inkscape:pageshadow="2"
     inkscape:window-width="798"
     inkscape:window-height="556"
     id="namedview518"
     showgrid="false"
     inkscape:zoom="1.84375"
     inkscape:cx="64"
     inkscape:cy="64"
     inkscape:window-x="114"
     inkscape:window-y="142"
     inkscape:window-maximized="0"
     inkscape:current-layer="svg516" />
  <path
     d="m 67.619098,33.267132 c 1.255631,3.63233 2.159997,7.340546 2.457279,11.184103 0.369257,4.768263 0.200276,9.502887 -0.80501,14.192919 -0.02739,0.129083 -0.08527,0.250343 -0.128302,0.375515 -0.315277,7.82e-4 -0.636811,-0.03833 -0.945047,0.0094 -2.604355,0.409155 -5.206365,0.833175 -7.808374,1.254847 -2.689629,0.435754 -5.383171,0.854298 -8.068105,1.319781 -0.951306,0.164288 -2.128703,-0.03207 -2.512825,1.283793 -0.01096,0.03598 -0.120478,0.04225 -0.183846,0.06259 l 0.129866,-7.863138 c -0.04459,-6.324308 -0.0884,-12.648614 -0.132212,-18.972919 l 1.253282,-0.21514 c 2.049689,-0.335617 4.099377,-0.675927 6.15063,-1.002157 2.447891,-0.388815 4.89813,-0.766677 7.347585,-1.146104 1.08039,-0.1682 2.162343,-0.322318 3.245079,-0.483477 z"
     id="path484"
     inkscape:connector-curvature="0"
     style="clip-rule:evenodd;fill:#439934;fill-rule:evenodd;stroke-width:0.78232384" />
  <path
     d="M 47.036941,85.872152 C 45.714814,84.735435 44.346529,83.648787 43.079165,82.453397 36.259648,76.02113 31.271551,68.450582 28.815055,59.323211 c -0.676711,-2.512042 -1.128112,-5.064765 -1.272842,-7.660515 -0.101701,-1.816557 -0.248778,-3.649541 -0.120478,-5.456709 0.341876,-4.806598 1.03658,-9.567038 2.446327,-14.196831 l 0.07744,-0.107961 c 0.136907,0.182281 0.334053,0.343441 0.40368,0.549191 1.376107,4.052438 2.742044,8.108005 4.100941,12.165919 4.269923,12.751879 8.534371,25.506886 12.811335,38.255635 0.08371,0.248779 0.300412,0.452966 0.456094,0.677492 z"
     id="path486"
     inkscape:connector-curvature="0"
     style="clip-rule:evenodd;fill:#45a538;fill-rule:evenodd;stroke-width:0.78232384" />
  <path
     d="m 67.619098,33.267132 c -1.082736,0.161159 -2.165472,0.315277 -3.245861,0.481913 -2.449456,0.379426 -4.899695,0.757288 -7.347585,1.146104 -2.051253,0.326229 -4.100942,0.666539 -6.15063,1.002156 l -1.253284,0.215139 -0.0094,-0.817528 C 49.570868,34.6229 49.499684,33.951666 49.49186,33.27965 49.43788,28.99408 49.40424,24.70851 49.351042,20.42294 c -0.03285,-2.682588 -0.08215,-5.364393 -0.136907,-8.0462 -0.03363,-1.666351 -0.06963,-3.3334825 -0.14473,-4.9974852 -0.04069,-0.8941961 -0.184628,-1.7836988 -0.243303,-2.6778949 -0.03285,-0.5139868 0.01252,-1.0318843 0.02269,-1.5482183 0.63916,1.2384185 1.264236,2.4862248 1.921388,3.7152554 1.038144,1.9432927 2.691977,3.374946 4.180739,4.937247 5.885421,6.174099 10.063813,13.352702 12.668168,21.461488 z"
     id="path488"
     inkscape:connector-curvature="0"
     style="clip-rule:evenodd;fill:#46a037;fill-rule:evenodd;stroke-width:0.78232384" />
  <path
     d="m 49.624086,62.949282 c 0.06336,-0.02034 0.173676,-0.02661 0.183846,-0.06259 0.384121,-1.315869 1.561518,-1.119504 2.512824,-1.283793 2.684936,-0.464701 5.378476,-0.884026 8.068106,-1.31978 2.602009,-0.421674 5.204018,-0.845692 7.808373,-1.254847 0.308237,-0.04851 0.629772,-0.0086 0.945048,-0.0094 -0.486605,1.73676 -0.869945,3.511069 -1.487198,5.200107 -0.700962,1.915911 -1.549001,3.785664 -2.449455,5.618649 -1.345598,2.74048 -3.022117,5.296332 -4.970103,7.637828 -1.50128,1.805604 -3.174671,3.4743 -4.851973,5.122656 -0.927054,0.911408 -2.01996,1.653833 -3.036981,2.472926 L 52.08293,84.891115 51.133189,84.079063 50.15059,81.925326 c -0.676711,-2.521429 -1.031885,-5.088234 -1.09056,-7.696502 l 0.01799,-0.438883 0.133778,-1.897918 c 0.04459,-0.647765 0.104049,-1.294746 0.131429,-1.944075 0.100922,-2.33289 0.188542,-4.66578 0.280856,-6.998669 z"
     id="path490"
     inkscape:connector-curvature="0"
     style="clip-rule:evenodd;fill:#409433;fill-rule:evenodd;stroke-width:0.78232384" />
  <path
     d="m 49.624086,62.949282 c -0.09231,2.332889 -0.179935,4.665778 -0.27929,6.999451 -0.02739,0.649329 -0.08684,1.296311 -0.13143,1.944074 l -0.598478,0.226092 C 47.285719,68.205716 45.955769,64.333994 44.654765,60.452104 42.503374,54.030008 40.3778,47.597741 38.229539,41.17408 36.495128,35.988837 34.746633,30.809071 32.98797,25.631653 c -0.08214,-0.242522 -0.318406,-0.431844 -0.482694,-0.6462 l 3.830258,-7.042479 c 0.13143,0.228439 0.305106,0.442013 0.388033,0.687663 1.771962,5.243916 3.540796,10.488615 5.294766,15.73879 2.281257,6.829688 4.548432,13.664851 6.828123,20.495321 0.09075,0.273031 0.240956,0.524939 0.38412,0.830827 l 0.524158,-0.610213 c -0.04381,2.621567 -0.08762,5.242353 -0.130648,7.86392 z"
     id="path492"
     inkscape:connector-curvature="0"
     style="clip-rule:evenodd;fill:#4faa41;fill-rule:evenodd;stroke-width:0.78232384" />
  <path
     d="m 32.506059,24.986235 c 0.164287,0.214357 0.399766,0.403679 0.482693,0.646199 1.758664,5.17742 3.507158,10.357186 5.24157,15.542429 2.14826,6.42366 4.273834,12.855927 6.425225,19.278023 1.300222,3.881108 2.630172,7.753611 3.960123,11.666795 l 0.598478,-0.226091 -0.133777,1.897918 -0.12126,0.437318 c -0.208099,2.077853 -0.383339,4.160398 -0.636812,6.233557 -0.127519,1.038926 -0.398203,2.059076 -0.603954,3.087832 -0.1549,-0.224527 -0.372386,-0.428713 -0.456095,-0.677492 -4.276964,-12.749532 -8.541412,-25.503758 -12.811335,-38.255636 -1.358897,-4.057913 -2.724834,-8.11348 -4.100941,-12.165918 -0.06963,-0.205752 -0.265991,-0.36691 -0.40368,-0.549191 0.852733,-2.305509 1.706249,-4.611017 2.559765,-6.915743 z"
     id="path494"
     inkscape:connector-curvature="0"
     style="clip-rule:evenodd;fill:#4aa73c;fill-rule:evenodd;stroke-width:0.78232384" />
  <path
     d="m 49.753952,55.086145 -0.524157,0.610213 C 49.086629,55.390469 48.936423,55.137779 48.845674,54.865529 46.566765,48.035061 44.298808,41.199897 42.017551,34.37021 40.263581,29.120035 38.494747,23.875336 36.722783,18.631419 36.64064,18.385769 36.466964,18.171413 36.334751,17.943756 l 4.73697,-6.231209 c 0.149424,0.199493 0.362217,0.377081 0.439667,0.601608 1.315087,3.849814 2.618438,7.704323 3.913966,11.561181 1.210255,3.601818 2.402516,7.209113 3.626854,10.806238 0.08215,0.240956 0.367691,0.411503 0.558579,0.614906 l 0.0094,0.81753 c 0.04537,6.322741 0.08996,12.647829 0.133778,18.972135 z"
     id="path496"
     inkscape:connector-curvature="0"
     style="clip-rule:evenodd;fill:#57ae47;fill-rule:evenodd;stroke-width:0.78232384" />
  <path
     d="M 49.612351,35.294916 C 49.421464,35.091511 49.135916,34.920965 49.053772,34.680009 47.829435,31.082885 46.637173,27.475589 45.426918,23.87377 44.13139,20.016914 42.828039,16.163187 41.512952,12.31259 c -0.07744,-0.224528 -0.290242,-0.402115 -0.439666,-0.601607 1.540396,-1.508322 3.03307,-3.0706223 4.635269,-4.509316 1.424611,-1.2783172 2.569934,-2.6489486 2.62235,-4.6689087 0.0024,-0.083709 0.04615,-0.1674172 0.113436,-0.4021141 l 0.406026,1.0217156 c -0.01017,0.5171158 -0.05633,1.0342315 -0.02268,1.5482183 0.05868,0.8941961 0.202623,1.7836979 0.243303,2.6778949 0.0751,1.6640018 0.11109,3.331134 0.14473,4.997485 0.05398,2.681806 0.103267,5.363612 0.136907,8.0462 0.05241,4.285569 0.08683,8.57114 0.140818,12.856709 0.0062,0.673581 0.07666,1.344033 0.118913,2.016049 z"
     id="path498"
     inkscape:connector-curvature="0"
     style="clip-rule:evenodd;fill:#60b24f;fill-rule:evenodd;stroke-width:0.78232384" />
  <path
     d="m 47.71678,83.549432 c 0.205751,-1.028755 0.476436,-2.049688 0.603955,-3.087831 0.254255,-2.072377 0.428713,-4.155705 0.636811,-6.233556 l 0.05164,-0.0078 0.05163,0.0086 c 0.05868,2.608268 0.413849,5.175073 1.09056,7.696502 -0.13769,0.1815 -0.332489,0.343441 -0.405245,0.548409 -0.568749,1.603765 -1.104641,3.220045 -1.67652,4.823809 -0.07823,0.219051 -0.295717,0.389597 -0.449053,0.582049 l -0.584397,-2.007488 z"
     id="path500"
     inkscape:connector-curvature="0"
     style="clip-rule:evenodd;fill:#a9aa88;fill-rule:evenodd;stroke-width:0.78232384" />
  <path
     d="m 47.621337,87.880377 c 0.153335,-0.192451 0.371604,-0.362998 0.449054,-0.582049 0.571878,-1.603763 1.108553,-3.219262 1.676519,-4.823808 0.07276,-0.204969 0.266774,-0.36691 0.405244,-0.548409 l 0.981816,2.15452 c -0.194016,0.275378 -0.46157,0.523374 -0.569531,0.830045 L 48.683733,90.4331 c -0.07744,0.221398 -0.341876,0.377863 -0.518681,0.564838 z"
     id="path502"
     inkscape:connector-curvature="0"
     style="clip-rule:evenodd;fill:#b6b598;fill-rule:evenodd;stroke-width:0.78232384" />
  <path
     d="m 48.165052,90.997156 c 0.177587,-0.186193 0.44123,-0.343441 0.518681,-0.564838 l 1.880706,-5.522424 c 0.107178,-0.305889 0.375515,-0.554668 0.569531,-0.830046 l 0.950525,0.81127 c -0.459224,0.453747 -0.714262,0.977905 -0.560927,1.640533 l -0.288677,0.945047 c -0.13143,0.161941 -0.321536,0.302759 -0.386468,0.48817 -0.65637,1.879924 -1.283012,3.770019 -1.944075,5.649945 -0.08371,0.238606 -0.316059,0.425583 -0.480347,0.635241 -0.08528,-1.085079 -0.172112,-2.167815 -0.258949,-3.252898 z"
     id="path504"
     inkscape:connector-curvature="0"
     style="clip-rule:evenodd;fill:#c2c1a7;fill-rule:evenodd;stroke-width:0.78232384" />
  <path
     d="m 48.424783,94.250054 c 0.163506,-0.210439 0.395856,-0.397416 0.480347,-0.635241 0.661064,-1.879143 1.287706,-3.769238 1.944075,-5.649945 0.06493,-0.184628 0.254256,-0.326229 0.386468,-0.48817 l -0.398203,4.337985 c -0.106396,0.122825 -0.260514,0.230005 -0.311364,0.373169 -0.449837,1.262671 -0.873856,2.534729 -1.325258,3.797402 -0.0931,0.260516 -0.271465,0.490514 -0.410719,0.733814 -0.123608,-0.161934 -0.345005,-0.318401 -0.355176,-0.487381 -0.0399,-0.657942 -0.01252,-1.320568 -0.01017,-1.981633 z"
     id="path506"
     inkscape:connector-curvature="0"
     style="clip-rule:evenodd;fill:#cecdb7;fill-rule:evenodd;stroke-width:0.78232384" />
  <path
     d="m 48.789346,96.719068 c 0.139254,-0.244081 0.317624,-0.474088 0.410721,-0.733814 0.452183,-1.261892 0.87542,-2.533949 1.325255,-3.797402 0.05085,-0.143164 0.205752,-0.249561 0.311365,-0.373169 l 0.0094,2.847661 -0.95287,2.443979 z"
     id="path508"
     inkscape:connector-curvature="0"
     style="clip-rule:evenodd;fill:#dbdac7;fill-rule:evenodd;stroke-width:0.78232384" />
  <path
     d="m 49.893206,97.107104 0.95287,-2.44398 0.196363,2.891473 z"
     id="path510"
     inkscape:connector-curvature="0"
     style="clip-rule:evenodd;fill:#ebe9dc;fill-rule:evenodd;stroke-width:0.78232384" />
  <path
     d="m 51.523568,86.532433 c -0.153335,-0.662628 0.10092,-1.187568 0.560927,-1.640533 l 0.263643,0.179934 z"
     id="path512"
     inkscape:connector-curvature="0"
     style="clip-rule:evenodd;fill:#cecdb7;fill-rule:evenodd;stroke-width:0.78232384" />
  <path
     d="m 49.060813,74.229609 -0.05164,-0.0086 -0.05163,0.0078 0.12126,-0.437318 z"
     id="path514"
     inkscape:connector-curvature="0"
     style="clip-rule:evenodd;fill:#4faa41;fill-rule:evenodd;stroke-width:0.78232384" />
</svg>
