<?xml version="1.0" encoding="UTF-8" standalone="no"?>
<svg
   xmlns:dc="http://purl.org/dc/elements/1.1/"
   xmlns:cc="http://creativecommons.org/ns#"
   xmlns:rdf="http://www.w3.org/1999/02/22-rdf-syntax-ns#"
   xmlns:svg="http://www.w3.org/2000/svg"
   xmlns="http://www.w3.org/2000/svg"
   xmlns:sodipodi="http://sodipodi.sourceforge.net/DTD/sodipodi-0.dtd"
   xmlns:inkscape="http://www.inkscape.org/namespaces/inkscape"
   viewBox="0 0 100 100"
   version="1.1"
   id="svg807"
   sodipodi:docname="icon-html5.svg"
   width="100"
   height="100"
   inkscape:version="0.92.2 (30a58d1, 2017-08-07)">
  <metadata
     id="metadata813">
    <rdf:RDF>
      <cc:Work
         rdf:about="">
        <dc:format>image/svg+xml</dc:format>
        <dc:type
           rdf:resource="http://purl.org/dc/dcmitype/StillImage" />
        <dc:title></dc:title>
      </cc:Work>
    </rdf:RDF>
  </metadata>
  <defs
     id="defs811" />
  <sodipodi:namedview
     pagecolor="#ffffff"
     bordercolor="#666666"
     borderopacity="1"
     objecttolerance="10"
     gridtolerance="10"
     guidetolerance="10"
     inkscape:pageopacity="0"
     inkscape:pageshadow="2"
     inkscape:window-width="784"
     inkscape:window-height="680"
     id="namedview809"
     showgrid="false"
     inkscape:zoom="1.84375"
     inkscape:cx="64"
     inkscape:cy="64"
     inkscape:window-x="103"
     inkscape:window-y="124"
     inkscape:window-maximized="0"
     inkscape:current-layer="svg807" />
  <path
     d="M 16.888505,89.439735 9.032,1.322017 h 86.328115 l -7.865144,88.104369 -35.351526,9.800018 z"
     id="path799"
     inkscape:connector-curvature="0"
     style="fill:#e44d26;stroke-width:0.78525794" />
  <path
     d="M 52.196057,91.735829 80.76217,83.815717 87.483193,8.5267581 H 52.196057 Z"
     id="path801"
     inkscape:connector-curvature="0"
     style="fill:#f16529;stroke-width:0.78525794" />
  <path
     d="M 52.196057,41.208408 H 37.89494 L 36.907086,30.140983 H 52.196057 V 19.334263 H 25.096022 l 0.259134,2.899173 2.655743,29.782476 h 24.185158 z m 0,28.067474 -0.0479,0.01334 -12.035648,-3.250967 -0.768768,-8.618206 h -10.84991 l 1.513977,16.968639 22.138776,6.145428 0.04947,-0.01334 z"
     id="path803"
     inkscape:connector-curvature="0"
     style="fill:#ebebeb;stroke-width:0.78525794" />
  <path
     d="m 52.158365,41.208408 v 10.807504 h 13.307766 l -1.254056,14.016069 -12.05371,3.253324 v 11.244108 l 22.156052,-6.140717 0.162549,-1.825724 2.539524,-28.45225 0.263062,-2.902314 h -2.911737 z m 0,-21.874145 v 10.80672 H 78.26348 l 0.216731,-2.428018 0.493141,-5.479529 0.258351,-2.899173 z"
     id="path805"
     inkscape:connector-curvature="0"
     style="fill:#ffffff;stroke-width:0.78525794" />
</svg>
