<?xml version="1.0" encoding="UTF-8" standalone="no"?>
<svg
   xmlns:dc="http://purl.org/dc/elements/1.1/"
   xmlns:cc="http://creativecommons.org/ns#"
   xmlns:rdf="http://www.w3.org/1999/02/22-rdf-syntax-ns#"
   xmlns:svg="http://www.w3.org/2000/svg"
   xmlns="http://www.w3.org/2000/svg"
   xmlns:sodipodi="http://sodipodi.sourceforge.net/DTD/sodipodi-0.dtd"
   xmlns:inkscape="http://www.inkscape.org/namespaces/inkscape"
   viewBox="0 0 100 100"
   version="1.1"
   id="svg57"
   sodipodi:docname="icon-sass.svg"
   width="100"
   height="100"
   inkscape:version="0.92.2 (30a58d1, 2017-08-07)">
  <metadata
     id="metadata63">
    <rdf:RDF>
      <cc:Work
         rdf:about="">
        <dc:format>image/svg+xml</dc:format>
        <dc:type
           rdf:resource="http://purl.org/dc/dcmitype/StillImage" />
        <dc:title></dc:title>
      </cc:Work>
    </rdf:RDF>
  </metadata>
  <defs
     id="defs61" />
  <sodipodi:namedview
     pagecolor="#ffffff"
     bordercolor="#666666"
     borderopacity="1"
     objecttolerance="10"
     gridtolerance="10"
     guidetolerance="10"
     inkscape:pageopacity="0"
     inkscape:pageshadow="2"
     inkscape:window-width="903"
     inkscape:window-height="756"
     id="namedview59"
     showgrid="false"
     inkscape:zoom="1.84375"
     inkscape:cx="64"
     inkscape:cy="64"
     inkscape:window-x="75"
     inkscape:window-y="34"
     inkscape:window-maximized="0"
     inkscape:current-layer="svg57" />
  <path
     d="m 0.67662749,44.062812 c 0,0.638032 0.1640774,1.059151 0.2560246,1.468472 0.59924151,2.661948 1.88729431,4.946339 3.41552011,7.030154 2.1766102,2.969618 4.8422844,5.360196 7.5729568,7.608283 2.36843,1.949493 4.785213,3.855422 7.163157,5.790393 0.408214,0.332176 0.794233,0.714269 1.237324,1.121775 -0.381265,0.235972 -0.698324,0.443809 -1.028066,0.63531 -3.138091,1.82243 -6.157287,3.865404 -8.940273,6.340387 -1.6772422,1.49207 -3.2989998,3.077621 -4.4443757,5.149638 -1.8429065,3.332652 -2.4952552,6.883124 -1.1215968,10.674106 0.4010799,1.107253 1.013004,2.063848 1.8761976,2.770856 0.2798048,0.228712 0.5936937,0.455608 0.9210568,0.544552 0.8386216,0.225988 1.693095,0.373925 2.5420201,0.552719 l 2.4041,-0.0017 c 2.658541,-0.271367 5.078496,-1.314182 7.265411,-3.042224 3.417897,-2.700972 5.720539,-6.322236 6.710555,-10.969978 0.719725,-3.378031 0.749053,-6.759692 -0.09908,-10.122295 -0.07847,-0.312209 -0.177553,-0.618066 -0.280597,-0.920291 -0.103046,-0.302226 -0.22432,-0.596283 -0.366996,-0.972931 l 5.450246,-3.588592 0.08164,0.07987 c -0.09908,0.371201 -0.204503,0.741496 -0.294074,1.116328 -0.647592,2.708234 -1.077999,5.463663 -0.923434,8.274453 0.16487,2.995031 0.894899,5.798561 2.426295,8.300771 1.238115,2.023915 4.18835,2.099245 5.504147,0.06806 0.466869,-0.721528 0.919471,-1.475732 1.259517,-2.280759 0.888558,-2.101061 1.711327,-4.23933 2.560253,-6.363079 l 0.148224,-0.388446 c -0.06104,1.005604 -0.132371,1.888683 -0.164871,2.772672 -0.05072,1.380436 0.01982,2.752705 0.431994,4.065981 0.352728,1.123589 0.952762,1.963105 2.076737,2.111042 0.768868,0.100734 1.381585,-0.302226 1.946742,-0.813196 0.883009,-0.797767 1.600356,-1.783405 2.133015,-2.903364 1.506824,-3.168379 3.054073,-6.3177 4.419805,-9.565945 1.477495,-3.513262 2.769511,-7.12908 4.141585,-10.702242 l 0.226696,-0.633522 c 0.324194,1.458491 0.550098,2.887028 0.966238,4.239331 0.483515,1.569213 1.081965,3.101216 1.733521,4.590564 0.30834,0.703378 0.272671,1.159893 -0.154567,1.749823 -1.788212,2.468631 -3.545513,4.967213 -5.304397,7.463071 -0.38919,0.550904 -0.776795,1.111793 -1.100989,1.713521 -0.195784,0.365756 -0.325778,0.811381 -0.380471,1.237946 -0.105425,0.815011 0.334498,1.600979 1.096233,1.788848 0.695944,0.171535 1.437069,0.235066 2.14649,0.175166 2.45483,-0.20693 4.683756,-1.193475 6.654278,-2.865246 2.553118,-2.165498 3.372716,-5.120595 2.754451,-8.622965 -0.167249,-0.950241 -0.462907,-1.874163 -0.750638,-2.789916 -0.129201,-0.412951 -0.13792,-0.702471 0.09749,-1.087287 2.041069,-3.337189 3.784893,-6.877677 5.406651,-10.49985 0.06421,-0.14249 0.129994,-0.284982 0.24255,-0.437456 0.525525,3.131169 1.316588,6.148888 2.733842,8.887072 -0.722894,0.797767 -1.438655,1.521113 -2.08625,2.317972 -1.425972,1.755269 -2.662503,3.661198 -3.307718,5.985522 -0.277427,1.001974 -0.490649,2.020284 -0.366996,3.090327 0.191821,1.661788 1.380792,2.741814 2.808351,2.363352 3.054864,-0.809566 5.692004,-2.457741 7.61893,-5.377441 1.296775,-1.965829 1.414881,-4.158554 0.871916,-6.455652 -0.149018,-0.624419 -0.325779,-1.238853 -0.516013,-1.954938 0.753807,-0.267737 1.488593,-0.589023 2.248743,-0.787784 3.946594,-1.031017 7.850384,-0.851314 11.653505,0.780523 2.220208,0.952964 4.013979,2.547592 5.077704,5.056156 1.299153,3.066729 0.581018,5.976447 -1.943566,7.915048 -0.235416,0.18061 -0.504921,0.323101 -0.699913,0.549089 -0.119688,0.138861 -0.191815,0.416582 -0.162486,0.608082 0.01658,0.111631 0.274255,0.251401 0.422478,0.249586 0.829905,-0.0073 1.502855,-0.505525 2.148864,-1.017403 1.618593,-1.282417 2.799631,-3.007737 3.054076,-5.279421 l 0.05,-0.170626 -0.061,-1.479363 c -0.0246,-0.08531 0.0182,-0.169718 0.0127,-0.234158 -0.344013,-3.308147 -1.887291,-5.87389 -4.132077,-7.885098 -2.599878,-2.327955 -5.669806,-3.286364 -8.916493,-3.437931 -2.645859,-0.123432 -5.246536,0.326731 -7.740208,1.3641 -0.711005,0.294965 -1.415672,0.644385 -2.130639,0.973839 -0.09592,-0.198762 -0.198956,-0.389355 -0.283768,-0.586299 -0.733993,-1.720782 -1.623344,-3.365326 -1.819921,-5.338416 -0.139506,-1.40131 -0.310718,-2.800807 -0.01982,-4.186689 0.279805,-1.333243 0.644422,-2.643795 0.987639,-3.958886 0.176761,-0.677058 0.05231,-1.056428 -0.51205,-1.361376 -0.196577,-0.106189 -0.410591,-0.198762 -0.623021,-0.234158 -1.387134,-0.230526 -2.755243,-0.09893 -4.098783,0.348513 -0.475588,0.158827 -0.821182,0.463775 -0.926604,1.066412 -0.06024,0.34579 -0.183101,0.677058 -0.268708,1.01831 -0.351144,1.418555 -0.600035,2.864338 -1.167571,4.215732 -1.422009,3.38983 -3.045352,6.65169 -4.706742,9.889953 -0.179931,0.34942 -0.369373,0.692488 -0.596071,1.116329 -0.583389,-1.397681 -1.205618,-2.651962 -1.394267,-4.12225 -0.213222,-1.662697 -0.381264,-3.322668 -0.01982,-4.972658 0.268708,-1.230685 0.619851,-2.438681 0.943251,-3.653029 0.152981,-0.577224 0.08243,-0.880359 -0.37413,-1.184398 -0.23066,-0.153383 -0.491441,-0.28952 -0.75143,-0.333991 -1.438655,-0.244141 -2.855909,-0.116175 -4.243836,0.397521 -0.430407,0.159735 -0.656313,0.478297 -0.787892,0.986545 -0.386812,1.49933 -0.716553,3.034965 -1.259517,4.46078 -2.198805,5.772241 -4.461021,11.51453 -6.720861,17.255912 -0.471626,1.198921 -1.024101,2.356092 -1.555967,3.523245 -0.13475,0.295873 -0.331327,0.55635 -0.499368,0.834071 -0.13475,-0.182424 -0.187066,-0.307671 -0.186273,-0.432919 0.0039,-0.737866 -0.07291,-1.497514 0.04993,-2.210877 0.371752,-2.158236 0.799782,-4.304674 1.250799,-6.442944 0.372544,-1.76616 0.806123,-3.515985 1.219091,-5.270346 0.138714,-0.587208 0.141093,-1.136297 -0.227489,-1.630023 -0.619058,-0.82681 -1.912659,-1.008327 -2.679942,-0.371202 l -0.339253,0.219635 0.0658,-0.626234 c 0.1617,-1.342317 0.194198,-2.680097 -0.127616,-4.002449 -0.40108,-1.648174 -1.428352,-2.5966 -2.921699,-2.54396 -0.695946,0.0245 -1.426767,0.160642 -2.07119,0.451069 -2.710063,1.216164 -4.793934,3.369864 -6.567879,5.961018 -0.160908,0.235065 -0.373337,0.449254 -0.600035,0.593561 -2.293129,1.455765 -4.593393,2.89338 -6.892865,4.33644 l -2.559459,1.605519 c -0.686417,-0.749705 -1.310232,-1.527505 -2.018066,-2.18732 -2.16155,-2.018467 -4.357978,-3.98702 -6.53459,-5.982799 -1.929302,-1.768883 -3.798367,-3.611281 -5.228303,-5.953758 -1.0637327,-1.742562 -1.7493725,-3.649399 -1.8151631,-5.804006 -0.083223,-2.745444 0.5968639,-5.254008 1.8175411,-7.589223 1.561516,-2.987771 3.69136,-5.38561 6.032842,-7.557461 2.477024,-2.29619 5.156174,-4.245682 7.93282,-6.025456 3.884767,-2.489506 7.880504,-4.693121 12.164765,-6.14798 4.392854,-1.49207 8.849911,-2.346107 13.44727,-1.750732 1.807236,0.234158 3.562158,0.707917 5.173612,1.719874 1.234152,0.77417 2.246364,1.787942 2.717197,3.372585 0.464491,1.559232 0.450223,3.139336 0.128408,4.723072 -0.653935,3.207405 -2.187708,5.851199 -4.117806,8.213643 -3.165835,3.872666 -7.027614,6.5092 -11.375287,8.250854 -2.50873,1.004698 -5.089592,1.635469 -7.740206,1.890502 -2.163137,0.207835 -4.281091,-0.0118 -6.329293,-0.873098 -1.356221,-0.570871 -2.537266,-1.443969 -3.486858,-2.710956 -0.169626,-0.226896 -0.386812,-0.472851 -0.703078,-0.260477 -0.309925,0.208744 -0.364619,0.546365 -0.260781,0.888525 0.173589,0.568148 0.333703,1.159894 0.603998,1.668141 0.679299,1.275157 1.670108,2.199987 2.760792,2.993217 2.094967,1.525649 4.436449,2.038435 6.86433,2.157328 3.684226,0.182425 7.278884,-0.44744 10.822812,-1.579198 5.059471,-1.615501 9.458666,-4.468947 12.986742,-8.970569 2.937552,-3.748326 5.035691,-7.97858 5.485123,-13.086468 0.219563,-2.493135 -0.01427,-4.935445 -1.033613,-7.209853 C 61.13121,14.528228 59.373117,12.695813 57.271015,11.433363 54.209809,9.595504 50.906053,8.5254606 47.496083,8.5254606 h -3.416312 c -4.129695,0 -8.122262,1.3550249 -12.003067,2.9714334 -2.937552,1.224332 -5.818034,2.669207 -8.614494,4.268372 -6.089914,3.484219 -11.761308,7.685428 -16.4196989,13.462207 -2.3208727,2.877952 -4.2858463,6.053591 -5.4161622,9.792841 -0.3305345,1.094548 -0.64442341,2.268055 -0.88063211,3.399814 M 22.812238,75.104984 c -0.263952,4.04692 -1.865893,7.32784 -4.484009,9.985249 -1.472739,1.493884 -3.161871,2.557574 -5.129223,2.931499 -0.713384,0.135231 -1.443412,0.167903 -2.135393,-0.170626 -0.986847,-0.482836 -1.2079947,-1.485717 -1.2270188,-2.553944 -0.029328,-1.702628 0.4914418,-3.241894 1.2056168,-4.706735 0.932154,-1.909558 2.298679,-3.365326 3.757943,-4.724887 2.298678,-2.142808 4.792349,-3.956163 7.34626,-5.667869 l 0.192613,-0.09076 c 0.394739,1.669957 0.582596,3.319039 0.473211,4.998071 z M 42.753541,57.516851 c -0.186271,1.292401 -0.419311,2.58571 -0.749051,3.838177 -1.139828,4.335533 -2.603848,8.536743 -4.186767,12.681684 -0.292486,0.766909 -0.718138,1.466657 -1.088304,2.193633 -0.05707,0.112539 -0.141885,0.209652 -0.22432,0.303133 -0.458151,0.518232 -0.892521,0.491004 -1.123975,-0.186963 -0.2695,-0.787783 -0.435163,-1.630929 -0.577839,-2.464999 -0.09592,-0.55998 -0.07291,-1.148096 -0.103046,-1.721689 0.03092,-4.078687 1.117633,-7.785264 2.961332,-11.235902 0.760149,-1.423093 1.587673,-2.779025 2.851947,-3.67935 0.388397,-0.276813 0.824354,-0.499171 1.264273,-0.640754 0.673751,-0.216913 1.087513,0.139768 0.97575,0.91303 z m 13.605008,19.847068 4.889844,-6.537335 c 0.20371,2.42779 -3.400459,7.274294 -4.889844,6.537335 z m 15.617538,-4.399064 c -0.345594,0.226897 -0.7221,0.390261 -1.076414,0.599913 -0.324194,0.192408 -0.431201,-0.0017 -0.440713,-0.321285 -0.0063,-0.216913 0.0214,-0.443809 0.07372,-0.654368 0.660275,-2.666485 1.875405,-4.942707 3.683435,-6.794181 l 0.126823,-0.07442 c 0.860023,2.75452 -0.133958,5.779501 -2.366847,7.244343 z"
     id="path55"
     inkscape:connector-curvature="0"
     style="clip-rule:evenodd;fill:#cb6699;fill-rule:evenodd;stroke-width:0.84817165" />
</svg>
