<?xml version="1.0" encoding="UTF-8" standalone="no"?>
<svg
   xmlns:dc="http://purl.org/dc/elements/1.1/"
   xmlns:cc="http://creativecommons.org/ns#"
   xmlns:rdf="http://www.w3.org/1999/02/22-rdf-syntax-ns#"
   xmlns:svg="http://www.w3.org/2000/svg"
   xmlns="http://www.w3.org/2000/svg"
   xmlns:sodipodi="http://sodipodi.sourceforge.net/DTD/sodipodi-0.dtd"
   xmlns:inkscape="http://www.inkscape.org/namespaces/inkscape"
   version="1.0"
   width="41"
   height="60"
   preserveAspectRatio="xMidYMid meet"
   id="svg990"
   sodipodi:docname="MAO-logo.svg"
   inkscape:version="0.92.2 (30a58d1, 2017-08-07)">
  <metadata
     id="metadata996">
    <rdf:RDF>
      <cc:Work
         rdf:about="">
        <dc:format>image/svg+xml</dc:format>
        <dc:type
           rdf:resource="http://purl.org/dc/dcmitype/StillImage" />
        <dc:title></dc:title>
      </cc:Work>
    </rdf:RDF>
  </metadata>
  <defs
     id="defs994" />
  <sodipodi:namedview
     pagecolor="#ffffff"
     bordercolor="#666666"
     borderopacity="1"
     objecttolerance="10"
     gridtolerance="10"
     guidetolerance="10"
     inkscape:pageopacity="0"
     inkscape:pageshadow="2"
     inkscape:window-width="1305"
     inkscape:window-height="777"
     id="namedview992"
     showgrid="false"
     inkscape:zoom="4.48"
     inkscape:cx="50"
     inkscape:cy="49.297483"
     inkscape:window-x="329"
     inkscape:window-y="34"
     inkscape:window-maximized="0"
     inkscape:current-layer="svg990" />
  <rect
     id="backgroundrect"
     width="100%"
     height="100%"
     x="0"
     y="-40"
     style="fill:none;stroke:none" />
  <g
     class="currentLayer"
     id="g988"
     transform="matrix(1.278889,0,0,1.3588827,-7.296335,-37.896602)">
    <title
       id="title982">Layer 1</title>
    <g
       transform="matrix(0.1,0,0,-0.1,0,100)"
       id="svg_1"
       class="selected"
       style="fill:#c0b283;fill-opacity:1;stroke:none">
      <path
         d="m 270,696 c -5,-15 -10,-33 -10,-39 0,-7 -11,-29 -24,-50 l -24,-39 -33,64 c -33,61 -35,63 -74,63 H 65 l 1,-40 c 3,-156 19,-351 28,-357 6,-4 24,-8 40,-8 h 29 l -5,107 -5,106 48,-54 c 34,-38 49,-50 53,-39 2,8 10,32 16,53 20,64 30,41 30,-67 0,-58 3,-107 8,-109 4,-3 20,-3 36,0 l 29,6 -6,205 c -4,113 -8,207 -11,209 -2,2 -20,6 -40,10 -32,5 -37,3 -46,-21 z"
         id="svg_2"
         inkscape:connector-curvature="0"
         style="fill:#c0b283" />
    </g>
  </g>
</svg>
