<?xml version="1.0" encoding="UTF-8" standalone="no"?>
<svg
   xmlns:dc="http://purl.org/dc/elements/1.1/"
   xmlns:cc="http://creativecommons.org/ns#"
   xmlns:rdf="http://www.w3.org/1999/02/22-rdf-syntax-ns#"
   xmlns:svg="http://www.w3.org/2000/svg"
   xmlns="http://www.w3.org/2000/svg"
   xmlns:sodipodi="http://sodipodi.sourceforge.net/DTD/sodipodi-0.dtd"
   xmlns:inkscape="http://www.inkscape.org/namespaces/inkscape"
   version="1.0"
   width="89"
   height="44"
   preserveAspectRatio="xMidYMid meet"
   id="svg90"
   sodipodi:docname="MAO-logo2.svg"
   inkscape:version="0.92.2 (30a58d1, 2017-08-07)">
  <metadata
     id="metadata96">
    <rdf:RDF>
      <cc:Work
         rdf:about="">
        <dc:format>image/svg+xml</dc:format>
        <dc:type
           rdf:resource="http://purl.org/dc/dcmitype/StillImage" />
        <dc:title></dc:title>
      </cc:Work>
    </rdf:RDF>
  </metadata>
  <defs
     id="defs94" />
  <sodipodi:namedview
     pagecolor="#ffffff"
     bordercolor="#666666"
     borderopacity="1"
     objecttolerance="10"
     gridtolerance="10"
     guidetolerance="10"
     inkscape:pageopacity="0"
     inkscape:pageshadow="2"
     inkscape:window-width="1855"
     inkscape:window-height="1056"
     id="namedview92"
     showgrid="false"
     inkscape:zoom="8.97"
     inkscape:cx="50"
     inkscape:cy="50"
     inkscape:window-x="65"
     inkscape:window-y="24"
     inkscape:window-maximized="1"
     inkscape:current-layer="svg90" />
  <rect
     id="backgroundrect"
     width="100%"
     height="100%"
     x="0"
     y="-56"
     style="fill:none;stroke:none" />
  <g
     class="currentLayer"
     id="g88"
     transform="translate(-6.3545151,-28.017837)">
    <title
       id="title82">Layer 1</title>
    <g
       transform="matrix(0.1,0,0,-0.1,0,100)"
       id="svg_1"
       class="selected"
       style="fill:#c0b283;fill-opacity:1;stroke:none">
      <path
         d="m 270,696 c -5,-15 -10,-33 -10,-39 0,-7 -11,-29 -24,-50 l -24,-39 -33,64 c -33,61 -35,63 -74,63 H 65 l 1,-40 c 3,-156 19,-351 28,-357 6,-4 24,-8 40,-8 h 29 l -5,107 -5,106 48,-54 c 34,-38 49,-50 53,-39 2,8 10,32 16,53 20,64 30,41 30,-67 0,-58 3,-107 8,-109 4,-3 20,-3 36,0 l 29,6 -6,205 c -4,113 -8,207 -11,209 -2,2 -20,6 -40,10 -32,5 -37,3 -46,-21 z"
         id="svg_2"
         inkscape:connector-curvature="0"
         style="fill:#c0b283" />
      <path
         d="m 755,704 c -34,-34 -46,-63 -52,-127 -11,-118 31,-256 85,-283 27,-13 80,-4 116,20 68,44 55,293 -19,372 -27,28 -40,34 -73,34 -24,0 -47,-7 -57,-16 z M 862,580 c 23,-46 24,-152 2,-174 -19,-20 -48,-20 -67,-1 -21,20 -31,123 -17,174 10,38 14,42 38,39 19,-2 32,-13 44,-38 z"
         id="svg_3"
         inkscape:connector-curvature="0"
         style="fill:#c0b283" />
      <path
         d="M 503,682 C 489,673 423,426 414,346 l -6,-53 33,-6 c 19,-2 38,-1 42,3 5,4 12,32 16,61 9,70 15,79 55,79 h 33 l 9,-74 9,-74 36,15 c 35,13 36,16 29,46 -5,18 -14,75 -20,127 -6,52 -16,123 -22,158 l -11,62 h -51 c -28,0 -57,-4 -63,-8 z m 55,-175 c -2,-21 -9,-33 -20,-35 -21,-4 -22,8 -7,62 9,33 13,37 21,23 5,-10 8,-32 6,-50 z"
         id="svg_4"
         inkscape:connector-curvature="0"
         style="fill:#c0b283" />
    </g>
  </g>
</svg>
