<svg xmlns="http://www.w3.org/2000/svg" version="1.0" width="100.000000" height="100.000000" preserveAspectRatio="xMidYMid meet"><rect id="backgroundrect" width="100%" height="100%" x="0" y="0" fill="none" stroke="none"/>


<g class="currentLayer" style=""><title>Layer 1</title><g transform="translate(0,100) scale(0.10000000149011612,-0.10000000149011612) " fill="#c0b283" stroke="none" id="svg_1" class="selected" fill-opacity="1">
<path d="M270 696 c-5 -15 -10 -33 -10 -39 0 -7 -11 -29 -24 -50 l-24 -39 -33 64 c-33 61 -35 63 -74 63 l-40 0 1 -40 c3 -156 19 -351 28 -357 6 -4 24 -8 40 -8 l29 0 -5 107 -5 106 48 -54 c34 -38 49 -50 53 -39 2 8 10 32 16 53 20 64 30 41 30 -67 0 -58 3 -107 8 -109 4 -3 20 -3 36 0 l29 6 -6 205 c-4 113 -8 207 -11 209 -2 2 -20 6 -40 10 -32 5 -37 3 -46 -21z" id="svg_2" fill="#c0b283"/>
<path d="M755 704 c-34 -34 -46 -63 -52 -127 -11 -118 31 -256 85 -283 27 -13 80 -4 116 20 68 44 55 293 -19 372 -27 28 -40 34 -73 34 -24 0 -47 -7 -57 -16z m107 -124 c23 -46 24 -152 2 -174 -19 -20 -48 -20 -67 -1 -21 20 -31 123 -17 174 10 38 14 42 38 39 19 -2 32 -13 44 -38z" id="svg_3" fill="#c0b283"/>
<path d="M503 682 c-14 -9 -80 -256 -89 -336 l-6 -53 33 -6 c19 -2 38 -1 42 3 5 4 12 32 16 61 9 70 15 79 55 79 l33 0 9 -74 9 -74 36 15 c35 13 36 16 29 46 -5 18 -14 75 -20 127 -6 52 -16 123 -22 158 l-11 62 -51 0 c-28 0 -57 -4 -63 -8z m55 -175 c-2 -21 -9 -33 -20 -35 -21 -4 -22 8 -7 62 9 33 13 37 21 23 5 -10 8 -32 6 -50z" id="svg_4" fill="#c0b283"/>
</g></g></svg>